<?xml version="1.0" encoding="utf-8"?>
<!-- Generator: Adobe Illustrator 24.3.0, SVG Export Plug-In . SVG Version: 6.00 Build 0)  -->
<svg version="1.1" id="Capa_1" xmlns="http://www.w3.org/2000/svg" xmlns:xlink="http://www.w3.org/1999/xlink" x="0px" y="0px"
	 viewBox="0 0 1080 1080" style="enable-background:new 0 0 1080 1080;" xml:space="preserve">
<style type="text/css">
	.st0{fill:#FFFFFF;}
	.st1{fill:#FFFFFF;stroke:#FFFFFF;stroke-width:10;stroke-miterlimit:10;}
	.st2{fill:#FFFFFF;stroke:#FFFFFF;stroke-miterlimit:10;}
</style>
<g id="Capa_1_1_">
	<g>
		<g>
			<path class="st0" d="M538.1,624.4V515.8h13.8v21.5l-0.9,18.5l1.5,18.5v50.2L538.1,624.4L538.1,624.4z M580.2,596.2
				c-6.6,0-12.6-1.5-18.1-4.6c-5.5-3-9.8-7.6-13-13.6s-4.9-13.5-4.9-22.5s1.6-16.5,4.7-22.5c3.2-6,7.5-10.5,12.9-13.5
				s11.6-4.5,18.4-4.5c7.8,0,14.7,1.7,20.7,5.1c6,3.4,10.8,8.1,14.2,14.2c3.5,6,5.2,13.1,5.2,21.2c0,8.1-1.8,15.2-5.2,21.3
				s-8.2,10.8-14.2,14.2C594.9,594.5,588,596.2,580.2,596.2z M579,583.6c5.1,0,9.7-1.2,13.7-3.5s7.2-5.6,9.6-9.8s3.5-9.2,3.5-14.8
				c0-5.7-1.2-10.6-3.5-14.8c-2.3-4.2-5.5-7.4-9.6-9.7c-4-2.3-8.6-3.5-13.7-3.5c-5,0-9.5,1.2-13.6,3.5s-7.2,5.5-9.6,9.7
				c-2.3,4.2-3.5,9.1-3.5,14.8c0,5.6,1.2,10.5,3.5,14.8c2.3,4.2,5.5,7.5,9.6,9.8C569.5,582.4,574,583.6,579,583.6z"/>
			<path class="st0" d="M663.6,596.2c-5.9,0-11.1-1-15.5-3s-7.9-4.8-10.3-8.3c-2.4-3.5-3.6-7.6-3.6-12.1c0-4.3,1-8.2,3.1-11.7
				c2-3.5,5.4-6.3,10-8.4c4.7-2.1,10.9-3.2,18.8-3.2h25.2v10.3h-24.6c-7.2,0-12,1.2-14.5,3.6c-2.5,2.4-3.8,5.3-3.8,8.7
				c0,3.9,1.5,7,4.7,9.4c3.1,2.3,7.4,3.5,12.9,3.5c5.4,0,10.1-1.2,14.2-3.6c4-2.4,7-5.9,8.8-10.5l2.8,9.9c-1.9,4.7-5.2,8.4-10,11.2
				C677,594.8,670.9,596.2,663.6,596.2z M689.7,595.3v-16.8l-0.8-3.2v-28.7c0-6.1-1.8-10.8-5.3-14.2s-8.9-5-16-5
				c-4.7,0-9.3,0.8-13.8,2.3c-4.5,1.5-8.3,3.6-11.4,6.2l-6-10.8c4.1-3.3,9-5.8,14.8-7.6c5.8-1.8,11.8-2.6,18.1-2.6
				c10.9,0,19.3,2.7,25.2,8s8.8,13.4,8.8,24.3v48L689.7,595.3L689.7,595.3z"/>
			<path class="st0" d="M730.1,624.4V515.8h13.8v21.5l-0.9,18.5l1.5,18.5v50.2L730.1,624.4L730.1,624.4z M772.2,596.2
				c-6.6,0-12.6-1.5-18.1-4.6c-5.5-3-9.8-7.6-13-13.6s-4.9-13.5-4.9-22.5s1.6-16.5,4.7-22.5c3.2-6,7.5-10.5,12.9-13.5
				s11.6-4.5,18.4-4.5c7.8,0,14.7,1.7,20.7,5.1c6,3.4,10.8,8.1,14.2,14.2c3.5,6,5.2,13.1,5.2,21.2c0,8.1-1.8,15.2-5.2,21.3
				s-8.2,10.8-14.2,14.2C786.9,594.5,780,596.2,772.2,596.2z M771,583.6c5.1,0,9.7-1.2,13.7-3.5s7.2-5.6,9.6-9.8s3.5-9.2,3.5-14.8
				c0-5.7-1.2-10.6-3.5-14.8c-2.3-4.2-5.5-7.4-9.6-9.7c-4-2.3-8.6-3.5-13.7-3.5c-5,0-9.5,1.2-13.6,3.5s-7.2,5.5-9.6,9.7
				c-2.3,4.2-3.5,9.1-3.5,14.8c0,5.6,1.2,10.5,3.5,14.8c2.3,4.2,5.5,7.5,9.6,9.8C761.5,582.4,766,583.6,771,583.6z"/>
			<path class="st0" d="M867.8,596.2c-8.5,0-16-1.8-22.4-5.2s-11.5-8.3-15-14.4c-3.5-6.1-5.3-13.1-5.3-21s1.7-14.9,5.2-21
				c3.5-6.1,8.2-10.9,14.2-14.3s12.9-5.2,20.5-5.2c7.7,0,14.5,1.7,20.4,5.1c5.9,3.4,10.5,8.2,13.9,14.3c3.3,6.2,5,13.3,5,21.5
				c0,0.6,0,1.3-0.1,2.1s-0.1,1.5-0.2,2.2h-67.7V550h60.2l-5.8,3.6c0.1-5.1-1-9.7-3.2-13.7s-5.2-7.1-9.1-9.4
				c-3.8-2.2-8.3-3.4-13.4-3.4c-5,0-9.5,1.1-13.3,3.4c-3.9,2.2-7,5.4-9.2,9.5s-3.3,8.7-3.3,13.9v2.4c0,5.3,1.2,10,3.7,14.2
				c2.5,4.2,5.9,7.4,10.3,9.7c4.4,2.3,9.5,3.5,15.2,3.5c4.7,0,9-0.8,12.8-2.4c3.8-1.6,7.2-4,10.1-7.2l8,9.3
				c-3.6,4.2-8.1,7.4-13.4,9.6C880.3,595.1,874.4,596.2,867.8,596.2z"/>
			<path class="st0" d="M924.2,595.3v-79.5H938v21.6l-1.3-5.4c2.2-5.5,5.9-9.7,11.1-12.6c5.2-2.9,11.6-4.3,19.2-4.3v14
				c-0.6-0.1-1.2-0.2-1.7-0.2s-1.1,0-1.6,0c-7.7,0-13.8,2.3-18.3,6.9c-4.5,4.6-6.8,11.2-6.8,20v39.6H924.2z"/>
		</g>
	</g>
	<g>
		<g>
			<path class="st0" d="M577,384.8c6.5,0,12.2,1.2,17.2,3.8s8.8,6.3,11.6,11.4s4.2,11.5,4.2,19.4V465h-14.4v-44.1
				c0-7.7-1.9-13.5-5.6-17.4s-9-5.9-15.8-5.9c-5.1,0-9.5,1-13.3,3s-6.7,5-8.8,8.9c-2,3.9-3.1,8.8-3.1,14.5v41h-14.4v-79.5h13.8V407
				l-2.2-5.7c2.6-5.2,6.6-9.2,12-12.1C563.5,386.2,569.8,384.8,577,384.8z"/>
			<path class="st0" d="M672.1,465.9c-8.5,0-16-1.8-22.4-5.2s-11.5-8.3-15-14.4s-5.3-13.1-5.3-21s1.7-14.9,5.2-21
				c3.5-6.1,8.2-10.9,14.2-14.3c6-3.5,12.9-5.2,20.5-5.2c7.7,0,14.5,1.7,20.4,5.1s10.5,8.2,13.9,14.3c3.3,6.1,5,13.3,5,21.5
				c0,0.6,0,1.3-0.1,2.1c0,0.8-0.1,1.5-0.2,2.2h-67.7v-10.4h60.2l-5.8,3.6c0.1-5.1-1-9.6-3.2-13.6s-5.2-7.1-9.1-9.4
				c-3.8-2.2-8.3-3.4-13.4-3.4c-5,0-9.5,1.1-13.3,3.4c-3.9,2.2-7,5.4-9.2,9.5c-2.2,4-3.3,8.7-3.3,13.9v2.4c0,5.3,1.2,10,3.7,14.2
				c2.5,4.1,5.9,7.4,10.3,9.7c4.4,2.3,9.5,3.5,15.2,3.5c4.7,0,9-0.8,12.8-2.4c3.8-1.6,7.2-4,10.1-7.2l8,9.3
				c-3.6,4.2-8.1,7.4-13.4,9.6C684.7,464.8,678.7,465.9,672.1,465.9z"/>
			<path class="st0" d="M745.3,465l-29.5-79.5h13.7l26.2,72h-6.5l27.3-72h12.2l26.7,72h-6.3l26.8-72h12.9L819.1,465h-13.8l-25-65.7
				h4.2L759.1,465L745.3,465L745.3,465z"/>
		</g>
	</g>
	<g>
		<g>
			<path class="st0" d="M864,402.2v-4.7l19.7-19c1.8-1.7,3-3.1,3.9-4.4c0.8-1.3,1.4-2.4,1.7-3.5s0.5-2.1,0.5-3.1
				c0-2.5-0.9-4.4-2.6-5.9c-1.8-1.4-4.3-2.1-7.7-2.1c-2.6,0-4.9,0.4-7,1.3c-2.1,0.9-3.9,2.2-5.4,4l-4.7-4.1c1.8-2.3,4.3-4.1,7.4-5.4
				s6.5-1.9,10.2-1.9c3.3,0,6.3,0.5,8.8,1.6c2.5,1.1,4.4,2.6,5.8,4.6s2,4.4,2,7.2c0,1.6-0.2,3.1-0.6,4.6s-1.2,3.1-2.3,4.8
				c-1.2,1.7-2.8,3.6-5,5.7l-17.5,16.9l-1.7-2.7h29.2v6L864,402.2L864,402.2z"/>
		</g>
	</g>
</g>
<g id="periodico">
	<g>
		<path class="st1" d="M396.6,365H123.4c-14.1,0-25.4,11.4-25.4,25.4v208.1c0,14,11.4,25.4,25.4,25.4h273.1
			c14,0,25.4-11.4,25.4-25.4V390.4C422,376.4,410.6,365,396.6,365z"/>
		<rect x="292" y="458" class="st2" width="95" height="27"/>
		<rect x="292" y="402" class="st2" width="95" height="27"/>
		<rect x="129" y="539" class="st2" width="259" height="38"/>
		<rect x="129" y="401.9" class="st2" width="141" height="113"/>
	</g>
</g>
</svg>
