<svg id="Capa_1" data-name="Capa 1" xmlns="http://www.w3.org/2000/svg" viewBox="0 0 1080 1080"><defs><style>.cls-1{fill:#fff;}</style></defs><g id="Capa_1-2" data-name="Capa 1"><path class="cls-1" d="M538.08,624.39V515.79h13.8v21.45l-.9,18.45,1.5,18.45v50.25Zm42.15-28.2a36.29,36.29,0,0,1-18.08-4.58,33.23,33.23,0,0,1-13-13.58q-4.87-9-4.88-22.5t4.72-22.5a31.8,31.8,0,0,1,12.9-13.5,37.46,37.46,0,0,1,18.38-4.5,41.25,41.25,0,0,1,20.7,5.1,37.72,37.72,0,0,1,14.25,14.17q5.25,9.08,5.25,21.23a42,42,0,0,1-5.25,21.3,37.51,37.51,0,0,1-14.25,14.25A41.09,41.09,0,0,1,580.23,596.19Zm-1.2-12.6a27.32,27.32,0,0,0,13.73-3.45,24.86,24.86,0,0,0,9.6-9.82,30,30,0,0,0,3.53-14.78,29.49,29.49,0,0,0-3.53-14.77,25.22,25.22,0,0,0-9.6-9.68A27.29,27.29,0,0,0,579,527.64a27,27,0,0,0-13.57,3.45,25.15,25.15,0,0,0-9.6,9.68,29.49,29.49,0,0,0-3.53,14.77,30,30,0,0,0,3.53,14.78,24.79,24.79,0,0,0,9.6,9.82A27,27,0,0,0,579,583.59Z"/><path class="cls-1" d="M663.63,596.19a37.58,37.58,0,0,1-15.53-3,23.76,23.76,0,0,1-10.28-8.33,21.08,21.08,0,0,1-3.6-12.08,22.63,22.63,0,0,1,3.08-11.7q3.08-5.25,10.05-8.4t18.83-3.15h25.2v10.35h-24.6q-10.8,0-14.55,3.6a11.62,11.62,0,0,0-3.75,8.7,11.19,11.19,0,0,0,4.65,9.38q4.65,3.53,12.9,3.52a27.26,27.26,0,0,0,14.17-3.6A20.49,20.49,0,0,0,689,571l2.85,9.9a22.41,22.41,0,0,1-10.05,11.18Q674.58,596.18,663.63,596.19Zm26.1-.9v-16.8l-.75-3.15V546.69q0-9.15-5.33-14.17t-16-5a42.35,42.35,0,0,0-13.8,2.32,35.56,35.56,0,0,0-11.4,6.23l-6-10.8a43.57,43.57,0,0,1,14.78-7.58,61.7,61.7,0,0,1,18.07-2.62q16.35,0,25.2,8t8.85,24.3v48H689.73Z"/><path class="cls-1" d="M730.08,624.39V515.79h13.8v21.45l-.9,18.45,1.5,18.45v50.25Zm42.15-28.2a36.29,36.29,0,0,1-18.08-4.58,33.23,33.23,0,0,1-13-13.58q-4.87-9-4.88-22.5T741,533a31.8,31.8,0,0,1,12.9-13.5,37.46,37.46,0,0,1,18.38-4.5,41.25,41.25,0,0,1,20.7,5.1,37.72,37.72,0,0,1,14.25,14.17q5.25,9.08,5.25,21.23a42,42,0,0,1-5.25,21.3,37.51,37.51,0,0,1-14.25,14.25A41.16,41.16,0,0,1,772.23,596.19Zm-1.2-12.6a27.32,27.32,0,0,0,13.73-3.45,24.86,24.86,0,0,0,9.6-9.82,30,30,0,0,0,3.53-14.78,29.49,29.49,0,0,0-3.53-14.77,25.22,25.22,0,0,0-9.6-9.68A27.29,27.29,0,0,0,771,527.64a27,27,0,0,0-13.57,3.45,25.15,25.15,0,0,0-9.6,9.68,29.48,29.48,0,0,0-3.52,14.77,30.05,30.05,0,0,0,3.52,14.78,24.79,24.79,0,0,0,9.6,9.82A26.93,26.93,0,0,0,771,583.59Z"/><path class="cls-1" d="M867.77,596.19a46.27,46.27,0,0,1-22.42-5.25,37.83,37.83,0,0,1-15-14.4,41,41,0,0,1-5.33-21,42,42,0,0,1,5.17-21,37.37,37.37,0,0,1,14.25-14.33A40.61,40.61,0,0,1,864.92,515a40.12,40.12,0,0,1,20.4,5.1,36.17,36.17,0,0,1,13.88,14.32,44.33,44.33,0,0,1,5,21.53c0,.6,0,1.3-.08,2.1s-.13,1.55-.22,2.25H836.28V550h60.15l-5.85,3.6a26.73,26.73,0,0,0-3.15-13.65,24.16,24.16,0,0,0-9.08-9.38,28.19,28.19,0,0,0-26.77,0,23.78,23.78,0,0,0-9.15,9.45,28.62,28.62,0,0,0-3.3,13.88v2.4a27.3,27.3,0,0,0,3.67,14.17,25.15,25.15,0,0,0,10.27,9.67,32.23,32.23,0,0,0,15.15,3.45,33.17,33.17,0,0,0,12.83-2.4,28.07,28.07,0,0,0,10.12-7.2l8,9.3a34.84,34.84,0,0,1-13.43,9.6A46.44,46.44,0,0,1,867.77,596.19Z"/><path class="cls-1" d="M924.18,595.29v-79.5H938v21.6l-1.35-5.4a24.42,24.42,0,0,1,11.1-12.6q7.8-4.35,19.2-4.35v14a10.56,10.56,0,0,0-1.73-.15h-1.58q-11.55,0-18.3,6.9t-6.75,20v39.6Z"/><path class="cls-1" d="M577,384.79a37.63,37.63,0,0,1,17.18,3.75,26.9,26.9,0,0,1,11.62,11.4q4.2,7.65,4.2,19.35V465h-14.4v-44.1q0-11.55-5.62-17.4c-3.74-3.9-9-5.85-15.83-5.85a28.27,28.27,0,0,0-13.35,3,20.56,20.56,0,0,0-8.78,8.85Q549,415.39,549,424.09v41h-14.4v-79.5h13.8V407l-2.25-5.7a27.61,27.61,0,0,1,12-12.15A39.42,39.42,0,0,1,577,384.79Z"/><path class="cls-1" d="M672.14,465.94a46.27,46.27,0,0,1-22.42-5.25,37.83,37.83,0,0,1-15-14.4,41,41,0,0,1-5.33-21,42,42,0,0,1,5.17-21A37.37,37.37,0,0,1,648.81,390a40.61,40.61,0,0,1,20.48-5.17,40.12,40.12,0,0,1,20.4,5.1,36.17,36.17,0,0,1,13.88,14.32,44.33,44.33,0,0,1,5,21.53c0,.6,0,1.3-.08,2.1s-.13,1.55-.22,2.25H640.65V419.74H700.8l-5.85,3.6a26.73,26.73,0,0,0-3.15-13.65,24.16,24.16,0,0,0-9.08-9.38,28.19,28.19,0,0,0-26.77,0,23.78,23.78,0,0,0-9.15,9.45,28.62,28.62,0,0,0-3.3,13.88V426a27.3,27.3,0,0,0,3.67,14.17,25.15,25.15,0,0,0,10.27,9.67,32.23,32.23,0,0,0,15.15,3.45,33.17,33.17,0,0,0,12.83-2.4,28.07,28.07,0,0,0,10.12-7.2l8,9.3a34.84,34.84,0,0,1-13.43,9.6A46.51,46.51,0,0,1,672.14,465.94Z"/><path class="cls-1" d="M745.34,465l-29.55-79.5h13.65l26.25,72h-6.45l27.3-72h12.15l26.7,72h-6.3l26.85-72h12.9L819.14,465h-13.8l-25.05-65.7h4.2L759.14,465Z"/><path class="cls-1" d="M864,402.17v-4.69l19.65-19a28,28,0,0,0,3.9-4.38,12.33,12.33,0,0,0,1.72-3.52,11.73,11.73,0,0,0,.45-3.14,7.14,7.14,0,0,0-2.62-5.86c-1.75-1.42-4.3-2.14-7.65-2.14a18.1,18.1,0,0,0-7,1.28,13.94,13.94,0,0,0-5.38,4l-4.69-4.07a17.66,17.66,0,0,1,7.41-5.41,27,27,0,0,1,10.24-1.9A21.88,21.88,0,0,1,888.8,355a13,13,0,0,1,5.76,4.65,12.53,12.53,0,0,1,2,7.17,17.67,17.67,0,0,1-.62,4.62,16.63,16.63,0,0,1-2.34,4.83,38.38,38.38,0,0,1-5,5.72l-17.51,16.89-1.65-2.69h29.17v6H864Z"/></g><g id="periodico"><path class="cls-1" d="M396.56,365H123.44A25.44,25.44,0,0,0,98,390.44V598.56A25.44,25.44,0,0,0,123.44,624H396.56A25.44,25.44,0,0,0,422,598.56V390.44A25.44,25.44,0,0,0,396.56,365Z"/><rect class="cls-1" x="292" y="458" width="95" height="27"/><rect class="cls-1" x="292" y="402" width="95" height="27"/><rect class="cls-1" x="129" y="539" width="259" height="38"/><polyline class="cls-1" points="129 401.85 270 401.85 270 514.81 129 514.81 129 401.85"/></g><rect x="129" y="401.85" width="141" height="112.96"/><rect x="292" y="402" width="95" height="27"/><rect x="292" y="458" width="95" height="27"/><rect x="129" y="539" width="259" height="37.53"/></svg>