<?xml version="1.0" encoding="utf-8"?>
<!-- Generator: Adobe Illustrator 24.3.0, SVG Export Plug-In . SVG Version: 6.00 Build 0)  -->
<svg version="1.1" xmlns="http://www.w3.org/2000/svg" xmlns:xlink="http://www.w3.org/1999/xlink" x="0px" y="0px"
	 viewBox="0 0 1080 1080" style="enable-background:new 0 0 1080 1080;" xml:space="preserve">
<style type="text/css">
	.st0{fill:none;stroke:#000000;stroke-width:10;stroke-miterlimit:10;}
</style>
<g id="Capa_1">
	<g>
		<g>
			<path d="M538.08,624.39v-108.6h13.8v21.45l-0.9,18.45l1.5,18.45v50.25H538.08z M580.23,596.19c-6.6,0-12.63-1.52-18.08-4.58
				c-5.45-3.05-9.8-7.58-13.05-13.58c-3.25-6-4.88-13.5-4.88-22.5s1.58-16.5,4.72-22.5c3.15-6,7.45-10.5,12.9-13.5
				c5.45-3,11.57-4.5,18.38-4.5c7.8,0,14.7,1.7,20.7,5.1c6,3.4,10.75,8.13,14.25,14.17c3.5,6.05,5.25,13.12,5.25,21.23
				c0,8.1-1.75,15.2-5.25,21.3c-3.5,6.1-8.25,10.85-14.25,14.25C594.93,594.49,588.03,596.19,580.23,596.19z M579.03,583.59
				c5.1,0,9.68-1.15,13.73-3.45c4.05-2.3,7.25-5.57,9.6-9.82c2.35-4.25,3.53-9.17,3.53-14.78c0-5.7-1.18-10.62-3.53-14.77
				c-2.35-4.15-5.55-7.37-9.6-9.68c-4.05-2.3-8.62-3.45-13.73-3.45c-5,0-9.52,1.15-13.57,3.45c-4.05,2.3-7.25,5.53-9.6,9.68
				c-2.35,4.15-3.53,9.07-3.53,14.77c0,5.6,1.17,10.53,3.53,14.78c2.35,4.25,5.55,7.53,9.6,9.82
				C569.5,582.44,574.03,583.59,579.03,583.59z"/>
			<path d="M663.63,596.19c-5.9,0-11.08-1-15.53-3c-4.45-2-7.88-4.77-10.28-8.33c-2.4-3.55-3.6-7.58-3.6-12.08
				c0-4.3,1.02-8.2,3.08-11.7c2.05-3.5,5.4-6.3,10.05-8.4c4.65-2.1,10.92-3.15,18.83-3.15h25.2v10.35h-24.6
				c-7.2,0-12.05,1.2-14.55,3.6c-2.5,2.4-3.75,5.3-3.75,8.7c0,3.9,1.55,7.03,4.65,9.38c3.1,2.35,7.4,3.52,12.9,3.52
				c5.4,0,10.12-1.2,14.17-3.6c4.05-2.4,6.98-5.9,8.78-10.5l2.85,9.9c-1.9,4.7-5.25,8.43-10.05,11.18
				C676.98,594.81,670.93,596.19,663.63,596.19z M689.73,595.29v-16.8l-0.75-3.15v-28.65c0-6.1-1.78-10.82-5.33-14.17
				c-3.55-3.35-8.88-5.02-15.97-5.02c-4.7,0-9.3,0.78-13.8,2.32c-4.5,1.55-8.3,3.63-11.4,6.23l-6-10.8c4.1-3.3,9.02-5.82,14.78-7.58
				c5.75-1.75,11.77-2.62,18.07-2.62c10.9,0,19.3,2.65,25.2,7.95c5.9,5.3,8.85,13.4,8.85,24.3v48H689.73z"/>
			<path d="M730.08,624.39v-108.6h13.8v21.45l-0.9,18.45l1.5,18.45v50.25H730.08z M772.23,596.19c-6.6,0-12.63-1.52-18.08-4.58
				c-5.45-3.05-9.8-7.58-13.05-13.58c-3.25-6-4.88-13.5-4.88-22.5s1.58-16.5,4.73-22.5c3.15-6,7.45-10.5,12.9-13.5
				c5.45-3,11.57-4.5,18.38-4.5c7.8,0,14.7,1.7,20.7,5.1c6,3.4,10.75,8.13,14.25,14.17c3.5,6.05,5.25,13.12,5.25,21.23
				c0,8.1-1.75,15.2-5.25,21.3c-3.5,6.1-8.25,10.85-14.25,14.25C786.93,594.49,780.03,596.19,772.23,596.19z M771.03,583.59
				c5.1,0,9.68-1.15,13.73-3.45c4.05-2.3,7.25-5.57,9.6-9.82c2.35-4.25,3.53-9.17,3.53-14.78c0-5.7-1.18-10.62-3.53-14.77
				c-2.35-4.15-5.55-7.37-9.6-9.68c-4.05-2.3-8.62-3.45-13.73-3.45c-5,0-9.52,1.15-13.57,3.45c-4.05,2.3-7.25,5.53-9.6,9.68
				c-2.35,4.15-3.52,9.07-3.52,14.77c0,5.6,1.17,10.53,3.52,14.78c2.35,4.25,5.55,7.53,9.6,9.82
				C761.5,582.44,766.02,583.59,771.03,583.59z"/>
			<path d="M867.77,596.19c-8.5,0-15.97-1.75-22.42-5.25c-6.45-3.5-11.45-8.3-15-14.4c-3.55-6.1-5.33-13.1-5.33-21
				c0-7.9,1.73-14.9,5.17-21c3.45-6.1,8.2-10.88,14.25-14.33c6.05-3.45,12.88-5.17,20.48-5.17c7.7,0,14.5,1.7,20.4,5.1
				c5.9,3.4,10.52,8.17,13.88,14.32c3.35,6.15,5.03,13.33,5.03,21.53c0,0.6-0.03,1.3-0.08,2.1c-0.05,0.8-0.13,1.55-0.22,2.25h-67.65
				v-10.35h60.15l-5.85,3.6c0.1-5.1-0.95-9.65-3.15-13.65c-2.2-4-5.23-7.12-9.08-9.38c-3.85-2.25-8.33-3.38-13.42-3.38
				c-5,0-9.45,1.12-13.35,3.38c-3.9,2.25-6.95,5.4-9.15,9.45c-2.2,4.05-3.3,8.68-3.3,13.88v2.4c0,5.3,1.22,10.03,3.67,14.17
				c2.45,4.15,5.87,7.38,10.27,9.67c4.4,2.3,9.45,3.45,15.15,3.45c4.7,0,8.97-0.8,12.83-2.4c3.85-1.6,7.22-4,10.12-7.2l7.95,9.3
				c-3.6,4.2-8.08,7.4-13.43,9.6C880.35,595.09,874.38,596.19,867.77,596.19z"/>
			<path d="M924.18,595.29v-79.5h13.8v21.6l-1.35-5.4c2.2-5.5,5.9-9.7,11.1-12.6c5.2-2.9,11.6-4.35,19.2-4.35v13.95
				c-0.6-0.1-1.18-0.15-1.73-0.15c-0.55,0-1.08,0-1.58,0c-7.7,0-13.8,2.3-18.3,6.9c-4.5,4.6-6.75,11.25-6.75,19.95v39.6H924.18z"/>
		</g>
	</g>
	<g>
		<g>
			<path d="M577.04,384.79c6.5,0,12.23,1.25,17.18,3.75c4.95,2.5,8.82,6.3,11.62,11.4c2.8,5.1,4.2,11.55,4.2,19.35v45.75h-14.4
				v-44.1c0-7.7-1.88-13.5-5.62-17.4s-9.03-5.85-15.83-5.85c-5.1,0-9.55,1-13.35,3c-3.8,2-6.73,4.95-8.78,8.85
				c-2.05,3.9-3.08,8.75-3.08,14.55v40.95h-14.4v-79.5h13.8v21.45l-2.25-5.7c2.6-5.2,6.6-9.25,12-12.15
				C563.54,386.24,569.84,384.79,577.04,384.79z"/>
			<path d="M672.14,465.94c-8.5,0-15.97-1.75-22.42-5.25c-6.45-3.5-11.45-8.3-15-14.4c-3.55-6.1-5.33-13.1-5.33-21
				c0-7.9,1.73-14.9,5.17-21c3.45-6.1,8.2-10.88,14.25-14.33c6.05-3.45,12.88-5.17,20.48-5.17c7.7,0,14.5,1.7,20.4,5.1
				c5.9,3.4,10.52,8.17,13.88,14.32c3.35,6.15,5.03,13.33,5.03,21.53c0,0.6-0.03,1.3-0.08,2.1c-0.05,0.8-0.13,1.55-0.22,2.25h-67.65
				v-10.35h60.15l-5.85,3.6c0.1-5.1-0.95-9.65-3.15-13.65c-2.2-4-5.23-7.12-9.08-9.38c-3.85-2.25-8.33-3.38-13.42-3.38
				c-5,0-9.45,1.12-13.35,3.38c-3.9,2.25-6.95,5.4-9.15,9.45c-2.2,4.05-3.3,8.68-3.3,13.88v2.4c0,5.3,1.22,10.03,3.67,14.17
				c2.45,4.15,5.87,7.38,10.27,9.67c4.4,2.3,9.45,3.45,15.15,3.45c4.7,0,8.97-0.8,12.83-2.4c3.85-1.6,7.22-4,10.12-7.2l7.95,9.3
				c-3.6,4.2-8.08,7.4-13.43,9.6C684.71,464.84,678.74,465.94,672.14,465.94z"/>
			<path d="M745.34,465.04l-29.55-79.5h13.65l26.25,72h-6.45l27.3-72h12.15l26.7,72h-6.3l26.85-72h12.9l-29.7,79.5h-13.8
				l-25.05-65.7h4.2l-25.35,65.7H745.34z"/>
		</g>
	</g>
	<g>
		<g>
			<path d="M863.97,402.17v-4.69l19.65-18.96c1.75-1.66,3.04-3.11,3.9-4.38c0.85-1.26,1.42-2.44,1.72-3.52
				c0.3-1.08,0.45-2.13,0.45-3.14c0-2.48-0.87-4.44-2.62-5.86c-1.75-1.42-4.3-2.14-7.65-2.14c-2.58,0-4.9,0.43-6.96,1.28
				c-2.07,0.85-3.86,2.17-5.38,3.96l-4.69-4.07c1.84-2.34,4.31-4.15,7.41-5.41c3.1-1.26,6.52-1.9,10.24-1.9
				c3.35,0,6.27,0.54,8.76,1.62c2.48,1.08,4.4,2.63,5.76,4.65c1.36,2.02,2.03,4.41,2.03,7.17c0,1.56-0.21,3.1-0.62,4.62
				c-0.41,1.52-1.2,3.13-2.34,4.83c-1.15,1.7-2.8,3.61-4.96,5.72l-17.51,16.89l-1.65-2.69h29.17v6H863.97z"/>
		</g>
	</g>
</g>
<g id="periodico">
	<g>
		<path class="st0" d="M396.56,365H123.44C109.39,365,98,376.39,98,390.44v208.12c0,14.05,11.39,25.44,25.44,25.44h273.12
			c14.05,0,25.44-11.39,25.44-25.44V390.44C422,376.39,410.61,365,396.56,365z"/>
		<rect x="292" y="458" width="95" height="27"/>
		<rect x="292" y="402" width="95" height="27"/>
		<rect x="129" y="539" width="259" height="38"/>
		<rect x="129" y="401.85" width="141" height="112.96"/>
	</g>
</g>
</svg>
